<?xml version="1.0" encoding="UTF-8"?>
<svg version="1.1" xmlns="http://www.w3.org/2000/svg" width="1259" height="527">
<path d="M0 0 C415.47 0 830.94 0 1259 0 C1259 173.91 1259 347.82 1259 527 C843.53 527 428.06 527 0 527 C0 353.09 0 179.18 0 0 Z " fill="#FDFDFD" transform="translate(0,0)"/>
<path d="M0 0 C4.92265695 2.2855193 7.81049249 5.71694706 11 10 C12.45016555 14.35049665 12.51070107 18.45334185 12 23 C9.16836702 28.66326595 4.82911374 32.54563632 -1 35 C-6.11452527 35.56550849 -11.49194857 35.70483086 -16 33 C-20.58333333 28.83333333 -20.58333333 28.83333333 -22 26 C-30.57917583 26 -35.64647247 29.38598141 -42 35 C-44.84460338 38.368269 -46.33875367 41.92239538 -48 46 C-48.33 46.66 -48.66 47.32 -49 48 C-49.1059367 50.00156476 -49.14666127 52.00668391 -49.15821838 54.01101685 C-49.17290161 55.93356796 -49.17290161 55.93356796 -49.18788147 57.8949585 C-49.19378606 59.32336388 -49.19959648 60.75176966 -49.20532227 62.18017578 C-49.21489808 63.67799146 -49.22490798 65.17580441 -49.23532104 66.6736145 C-49.26240834 70.74772894 -49.28339715 74.82185501 -49.30332303 78.89600992 C-49.32515904 83.15081825 -49.35255937 87.40559057 -49.37937927 91.66036987 C-49.42933848 99.72095775 -49.47426531 107.78156557 -49.51740164 115.84219253 C-49.56674646 125.0174206 -49.62167479 134.19261256 -49.67708123 143.36780572 C-49.79095081 162.2451703 -49.89777899 181.12256894 -50 200 C-48.68 200.33 -47.36 200.66 -46 201 C-45.94839722 201.87398438 -45.94839722 201.87398438 -45.89575195 202.765625 C-44.11675626 230.83238499 -35.52724331 253.59382878 -14.86328125 273.55078125 C-6.20345986 280.95829559 3.42733558 286.76441795 14 291 C15.20849609 291.53367187 15.20849609 291.53367187 16.44140625 292.078125 C27.46236371 296.81908262 38.55404194 298.56311263 50.5 298.5 C51.70817383 298.49718018 52.91634766 298.49436035 54.16113281 298.49145508 C82.32689718 297.99128406 108.76926463 286.14337526 128.41015625 266.0234375 C133.09374759 260.55571548 136.78080889 254.43838223 140 248 C140.66 248 141.32 248 142 248 C142.2165625 246.576875 142.2165625 246.576875 142.4375 245.125 C143 242 143 242 144 240 C144.66 240 145.32 240 146 240 C146.12117187 239.24976563 146.24234375 238.49953125 146.3671875 237.7265625 C147.16220613 232.87083333 147.97332779 228.04890913 149.0625 223.25 C150.1708828 217.9916258 150.39418631 212.71468586 150.57055664 207.35644531 C150.78965935 202.21034065 150.78965935 202.21034065 153 200 C153.31400506 197.28632801 153.31400506 197.28632801 153.27415466 194.05627441 C153.28911736 192.1554007 153.28911736 192.1554007 153.30438232 190.21612549 C153.30527823 188.80358899 153.30594174 187.39105233 153.30639648 185.97851562 C153.31401485 184.49692363 153.32244179 183.0153356 153.33161926 181.53375244 C153.35361495 177.50026266 153.36237101 173.46684873 153.36744571 169.43330574 C153.37108615 166.91151655 153.37732485 164.3897473 153.3844471 161.8679657 C153.40896821 153.064312 153.42199728 144.26071735 153.42553711 135.45703125 C153.42916487 127.26251968 153.45899858 119.0683844 153.50094169 110.87398767 C153.53570934 103.83349662 153.55108674 96.79312973 153.55178314 89.75255346 C153.55257437 85.55019533 153.5612397 81.34821947 153.58978081 77.14595032 C153.61606968 73.186254 153.61810713 69.22725365 153.60212517 65.26750946 C153.60031866 63.82039108 153.60692886 62.37323175 153.62294388 60.92620087 C153.7359612 50.04365904 152.11046684 42.24508855 144.625 34.125 C139.44082805 29.38773942 134.21047501 26.25072948 127.0625 25.6953125 C124.61310858 25.84124612 124.61310858 25.84124612 122.375 28.75 C121.80458984 29.58144531 121.80458984 29.58144531 121.22265625 30.4296875 C118.99319421 33.29308603 116.40213382 33.99609166 113 35 C107.00991572 35.68458106 102.10100106 35.52211978 97 32 C91.81282829 26.38056398 90.58375657 22.2141211 90.75390625 14.6875 C91.21766878 9.62291867 93.20381561 6.52752085 96.875 3.1875 C99.98729488 1.00889358 101.29737815 0.25832245 105 0 C105.65871094 -0.07347656 106.31742188 -0.14695313 106.99609375 -0.22265625 C113.37849008 -0.65404872 117.92836861 1.13589989 123 5 C126 8.90909091 126 8.90909091 126 12 C126.99128906 12.09023438 127.98257813 12.18046875 129.00390625 12.2734375 C133.40619438 12.90881929 137.00894941 14.60402446 140.9375 16.625 C141.64044189 16.98327881 142.34338379 17.34155762 143.06762695 17.71069336 C148.37507757 20.49958347 152.94835167 23.52566062 157 28 C157.47566406 28.51820312 157.95132813 29.03640625 158.44140625 29.5703125 C166.48374533 39.50920319 166.60261361 52.01572576 166.609375 64.15698242 C166.62468999 65.855301 166.6416696 67.55360524 166.66017151 69.25189209 C166.70486103 73.83276336 166.72492941 78.41342686 166.73923111 82.9944818 C166.75369027 86.8358673 166.78084494 90.6771204 166.80806828 94.51843339 C166.87235975 103.59208422 166.91714657 112.66568218 166.94873047 121.73950195 C166.98142813 131.05889543 167.04300616 140.37776699 167.11963081 149.69689482 C167.18490559 157.73379747 167.23399456 165.77068533 167.27000237 173.80777246 C167.29146966 178.5919887 167.31832227 183.37599882 167.35998535 188.16008568 C167.39835236 192.66559875 167.41619378 197.17076647 167.4192028 201.67643738 C167.42348292 203.31576164 167.43448434 204.95508676 167.4532795 206.59430885 C167.60526699 220.4798968 166.22890753 234.40933689 159.24609375 246.7265625 C157.87652382 249.12694196 157.87652382 249.12694196 156.625 252.328125 C145.63140365 278.38779488 120.68433628 296.30057941 95.38671875 306.75390625 C90.33896221 308.61115462 85.25053071 309.86900123 80 311 C79.20980469 311.20496094 78.41960937 311.40992188 77.60546875 311.62109375 C73.57302603 312.64509409 69.8956559 313.09557316 65.7265625 313.05078125 C64.83791504 313.04344971 63.94926758 313.03611816 63.03369141 313.02856445 C62.36257324 313.01913818 61.69145508 313.00971191 61 313 C61.06131266 322.65808644 61.13849172 332.31587975 61.23571491 341.97367191 C61.28036967 346.45858513 61.31963648 350.94340853 61.34643555 355.4284668 C61.3725175 359.75990134 61.41295422 364.09098936 61.46318626 368.42220879 C61.47982198 370.07149368 61.49135674 371.72083847 61.49761391 373.37019539 C61.50729117 375.68734867 61.53539201 378.00362202 61.56762695 380.32055664 C61.57873001 381.6373793 61.58983307 382.95420197 61.60127258 384.31092834 C62.05889432 388.54489697 63.14737653 391.1898589 65 395 C65.7115625 396.53720703 65.7115625 396.53720703 66.4375 398.10546875 C74.34562291 413.70424118 86.73704593 425.99701631 103.46459961 431.86450195 C110.62125729 433.95552502 117.31132492 434.54348171 124.75 434.5 C125.89235107 434.49427979 127.03470215 434.48855957 128.21166992 434.48266602 C137.34813175 434.29012155 144.67759192 432.96162591 153 429 C154.15757812 428.45730469 155.31515625 427.91460937 156.5078125 427.35546875 C170.11522669 420.48976888 177.80506445 411.23868141 185 398 C185.66 398 186.32 398 187 398 C187.13277344 397.24074219 187.26554688 396.48148437 187.40234375 395.69921875 C187.57894531 394.70535156 187.75554687 393.71148437 187.9375 392.6875 C188.11152344 391.70136719 188.28554688 390.71523438 188.46484375 389.69921875 C189 387 189 387 190 384 C190.11322825 382.5735686 190.17595476 381.1427751 190.20532227 379.7121582 C190.22526749 378.85149246 190.24521271 377.99082672 190.26576233 377.1040802 C190.28247482 376.17899155 190.29918732 375.25390289 190.31640625 374.30078125 C190.33718735 373.35059616 190.35796844 372.40041107 190.37937927 371.4214325 C190.44478052 368.38519544 190.50371604 365.34887169 190.5625 362.3125 C190.60569417 360.25454831 190.64930876 358.19660541 190.69335938 356.13867188 C190.80045231 351.09253684 190.90174646 346.04631457 191 341 C189.35 341 187.7 341 186 341 C186 282.26 186 223.52 186 163 C195.24 163 204.48 163 214 163 C214.33 167.62 214.66 172.24 215 177 C215.9075 175.989375 216.815 174.97875 217.75 173.9375 C227.92334772 163.80525671 239.81678583 159.76613543 253.8125 159.625 C263.79056909 159.67950478 272.73323195 161.13183911 282 165 C282 165.66 282 166.32 282 167 C283.32064453 167.38865234 283.32064453 167.38865234 284.66796875 167.78515625 C296.68865003 172.16784309 305.55108685 182.58365147 311.01464844 193.82788086 C312.42447055 196.85974435 313.74391597 199.89980369 315 203 C315.57814453 204.31871094 315.57814453 204.31871094 316.16796875 205.6640625 C317.48105754 210.92874713 317.38265374 216.15666382 317.375 221.5625 C317.37338867 222.72894043 317.37177734 223.89538086 317.37011719 225.09716797 C317.25116355 233.43908362 316.48611975 240.3377993 313 248 C312.566875 249.08474609 312.566875 249.08474609 312.125 250.19140625 C305.80086017 264.61835024 292.21544147 275.97069207 278 282 C263.07229282 287.00559155 244.61045003 287.16082581 230 281 C223.94729195 277.26179661 219.34660575 272.56908862 215 267 C214.34 266.67 213.68 266.34 213 266 C213 290.75 213 315.5 213 341 C210.69 341 208.38 341 206 341 C206.0314209 342.67618408 206.0314209 342.67618408 206.06347656 344.38623047 C206.13714746 348.6243757 206.18224993 352.86246757 206.21972656 357.10107422 C206.23955821 358.91822902 206.26663217 360.73532258 206.30175781 362.55224609 C206.56005638 376.28005523 205.36581327 388.90256019 201 402 C200.34 402 199.68 402 199 402 C198.75121094 403.02609375 198.50242187 404.0521875 198.24609375 405.109375 C194.34724227 418.66171465 180.68667764 431.46923594 169 438.375 C154.0356931 446.48066624 140.87682613 450.19756761 123.75 450.375 C122.25932007 450.39614868 122.25932007 450.39614868 120.73852539 450.41772461 C104.88642908 450.31378938 88.25039514 443.98941617 76 434 C75.16984375 433.33226562 74.3396875 432.66453125 73.484375 431.9765625 C63.36586786 423.37893527 56.33551742 413.08671487 51 401 C50.55610428 399.99564911 50.11220856 398.99129822 49.65486145 397.95651245 C45.76059225 388.21600307 45.33527063 379.80415513 45.51171875 369.4453125 C45.52107171 367.80623466 45.52817604 366.16714261 45.53315735 364.52804565 C45.55203243 360.26332378 45.60095802 355.99948574 45.65667725 351.73510742 C45.70829693 347.36389107 45.73076152 342.99252858 45.75585938 338.62109375 C45.80910157 330.08032853 45.89416928 321.54027493 46 313 C45.31460648 313.00344421 44.62921295 313.00688843 43.92304993 313.01043701 C43.02329941 313.01311584 42.12354889 313.01579468 41.1965332 313.01855469 C40.30488968 313.0219989 39.41324615 313.02544312 38.49458313 313.0289917 C27.0015106 312.8954208 14.8285596 309.36400404 4.75 303.92578125 C2.76868607 302.8404693 2.76868607 302.8404693 -0.375 301.625 C-8.70594152 297.89044001 -16.00019695 292.81911338 -23 287 C-23.77988281 286.36707031 -24.55976563 285.73414063 -25.36328125 285.08203125 C-47.36556425 266.37833613 -60.17764663 239.50705776 -63 211 C-63.1812283 207.31239807 -63.22358372 203.68499098 -63 200 C-62.34 200 -61.68 200 -61 200 C-61.00276538 198.83877593 -61.00276538 198.83877593 -61.00558662 197.65409279 C-61.0498148 178.79044022 -61.08288046 159.92679804 -61.10362434 141.06310463 C-61.11392336 131.94065103 -61.12795735 122.81823212 -61.15087891 113.69580078 C-61.17085494 105.74183165 -61.18372643 97.78788765 -61.18817699 89.83389413 C-61.19077724 85.62492472 -61.19686019 81.41602716 -61.21146011 77.20708084 C-61.22511068 73.23939274 -61.22920764 69.27180558 -61.22621536 65.30409622 C-61.2267622 63.85376434 -61.2306949 62.40342883 -61.23841095 60.95311737 C-61.3119528 46.40748581 -60.03661043 35.7509758 -49.890625 24.703125 C-41.964864 17.22705257 -33.93757266 13.25598574 -23 13 C-22.979375 12.319375 -22.95875 11.63875 -22.9375 10.9375 C-21.53725934 6.55007926 -18.44318928 3.95812104 -15 1 C-10.58093944 -1.20953028 -4.81010627 -0.41648481 0 0 Z " fill="#7EAA73" transform="translate(210,40)"/>
<path d="M0 0 C0.7425 0.66 1.485 1.32 2.25 2 C2.58 -2.62 2.91 -7.24 3.25 -12 C12.49 -12 21.73 -12 31.25 -12 C31.25 27.27 31.25 66.54 31.25 107 C22.01 107 12.77 107 3.25 107 C3.25 102.05 3.25 97.1 3.25 92 C2.59 92 1.93 92 1.25 92 C0.87101563 92.88558594 0.87101563 92.88558594 0.484375 93.7890625 C-4.18547299 102.15341048 -15.20446388 105.92443265 -23.75 109 C-28.29626299 110.25620425 -32.81765349 110.15350082 -37.5 110.125 C-38.30477783 110.12089111 -39.10955566 110.11678223 -39.9387207 110.11254883 C-48.22848825 110.03441481 -55.09995791 109.61638353 -62.75 106 C-63.966875 105.67 -65.18375 105.34 -66.4375 105 C-72.99191262 102.59799304 -77.89897492 96.83041166 -82.75 92 C-83.35070312 91.43410156 -83.95140625 90.86820312 -84.5703125 90.28515625 C-88.36279134 86.3786958 -90.67234274 81.62088636 -93.125 76.8125 C-93.66302246 75.75929565 -93.66302246 75.75929565 -94.21191406 74.68481445 C-95.94284689 71.14976908 -96.75 69.00204054 -96.75 65 C-97.41 65 -98.07 65 -98.75 65 C-103.49510554 48.639146 -100.12332977 30.04436425 -92.33203125 15.3203125 C-90.9354551 13.0591892 -89.43963142 11.0502952 -87.75 9 C-87.08097656 8.17113281 -86.41195312 7.34226563 -85.72265625 6.48828125 C-63.50809696 -19.63041851 -25.85809344 -21.29490048 0 0 Z " fill="#7CA971" transform="translate(1021.75,215)"/>
<path d="M0 0 C3.57959232 2.67923755 6.54029222 5.62712028 9.5625 8.91796875 C9.8925 3.96796875 10.2225 -0.98203125 10.5625 -6.08203125 C19.4725 -6.08203125 28.3825 -6.08203125 37.5625 -6.08203125 C37.5625 33.18796875 37.5625 72.45796875 37.5625 112.91796875 C28.9825 112.91796875 20.4025 112.91796875 11.5625 112.91796875 C11.5625 107.63796875 11.5625 102.35796875 11.5625 96.91796875 C9.9125 98.56796875 8.2625 100.21796875 6.5625 101.91796875 C-3.98183439 112.41074161 -16.94768159 116.32690606 -31.5 116.29296875 C-48.66950096 116.1945892 -61.24671668 112.42418036 -73.99609375 100.53125 C-88.9342217 84.88778043 -93.18465741 67.56640629 -92.84765625 46.62890625 C-92.3086659 35.09567182 -87.77957467 23.82726122 -80.4375 14.91796875 C-79.76847656 14.08910156 -79.09945312 13.26023438 -78.41015625 12.40625 C-73.38113522 6.49339399 -68.1760153 1.78602711 -61.4375 -2.08203125 C-59.96023438 -2.95408203 -59.96023438 -2.95408203 -58.453125 -3.84375 C-40.7249394 -12.60572191 -16.31280662 -10.86748055 0 0 Z " fill="#7BA870" transform="translate(875.4375,209.08203125)"/>
<path d="M0 0 C9.24 0 18.48 0 28 0 C28 21.45 28 42.9 28 65 C31.3 62.36 34.6 59.72 38 57 C46.85760625 52.21485639 52.64640523 50.79768743 62.625 50.75 C63.68074219 50.729375 64.73648438 50.70875 65.82421875 50.6875 C72.46833941 50.65456756 77.87149199 51.42441982 84 54 C84.69125977 54.279646 85.38251953 54.55929199 86.09472656 54.84741211 C95.44378407 58.79239729 103.4616757 67.01351678 108 76 C109.23226386 79.28927125 110.18058626 82.58675858 111 86 C111.2607859 86.81020599 111.2607859 86.81020599 111.52684021 87.63677979 C112.22104005 91.10399559 112.13014283 94.55250992 112.11352539 98.07324219 C112.11367142 98.88337265 112.11381744 99.69350311 112.1139679 100.52818298 C112.11327224 103.20110773 112.10549606 105.87396245 112.09765625 108.546875 C112.09579084 110.40203819 112.09436752 112.25720187 112.09336853 114.11236572 C112.08955305 118.99169274 112.07973102 123.87098993 112.06866455 128.75030518 C112.05842961 133.7306681 112.05386644 138.71103584 112.04882812 143.69140625 C112.03810789 153.46095271 112.02051892 163.2304692 112 173 C102.76 173 93.52 173 84 173 C83.98541748 170.64875 83.97083496 168.2975 83.95581055 165.875 C83.90536878 158.087714 83.8387569 150.30062594 83.76428509 142.51353455 C83.71964611 137.79435957 83.68037582 133.07526964 83.65356445 128.35595703 C83.62746677 123.79759271 83.58701894 119.23955678 83.53681374 114.68139648 C83.52018864 112.94641214 83.50864731 111.21137106 83.50238609 109.47631836 C83.49269728 107.03725129 83.46458245 104.59901613 83.43237305 102.16015625 C83.43380814 101.45021011 83.43524323 100.74026398 83.4367218 100.00880432 C83.3151926 93.45925911 81.85530679 88.08722014 77.5 83.1875 C76.675 82.465625 75.85 81.74375 75 81 C74.28263672 80.24203125 74.28263672 80.24203125 73.55078125 79.46875 C68.07537493 74.28297474 60.46405673 74.53424342 53.40234375 74.72265625 C44.70399827 75.43170623 38.8781149 78.52343449 33 85 C28.65749855 91.01172888 27.85380008 96.27399966 27.79467773 103.52246094 C27.77982834 104.6498745 27.77982834 104.6498745 27.76467896 105.80006409 C27.73315534 108.27813596 27.70834277 110.75622698 27.68359375 113.234375 C27.66301633 114.95502209 27.64201964 116.6756642 27.62062073 118.39630127 C27.56548149 122.92047092 27.51603633 127.44468557 27.46777344 131.96893311 C27.41749887 136.5874023 27.36184391 141.2058063 27.30664062 145.82421875 C27.1991587 154.88275883 27.098189 163.94135442 27 173 C18.09 173 9.18 173 0 173 C0 115.91 0 58.82 0 0 Z " fill="#7FAC73" transform="translate(662,150)"/>
<path d="M0 0 C7.12199028 5.33236195 14.15966628 11.49651797 18.53515625 19.3359375 C18.53515625 20.3259375 18.53515625 21.3159375 18.53515625 22.3359375 C17.64054688 22.65046875 16.7459375 22.965 15.82421875 23.2890625 C8.66271984 25.8238361 1.56014875 28.43853276 -5.46484375 31.3359375 C-5.9753125 30.68367188 -6.48578125 30.03140625 -7.01171875 29.359375 C-13.37064458 21.71513438 -20.05493178 17.47257482 -29.46484375 14.3359375 C-38.90020884 13.47591239 -49.39888004 12.7606906 -57.46484375 18.3359375 C-58.22925781 18.83351562 -58.99367188 19.33109375 -59.78125 19.84375 C-67.59792394 25.38109727 -72.33013719 31.96263504 -74.46484375 41.3359375 C-74.75159011 44.30047489 -74.79868434 47.23392511 -74.77734375 50.2109375 C-74.7731543 51.00741699 -74.76896484 51.80389648 -74.76464844 52.62451172 C-74.6544639 58.34590238 -73.97137571 63.13841019 -71.46484375 68.3359375 C-71.19800781 69.00496094 -70.93117188 69.67398438 -70.65625 70.36328125 C-67.31534924 78.09932258 -61.23772783 84.19033828 -53.52734375 87.59375 C-42.99030429 91.38548769 -32.95264158 91.38598047 -22.46484375 87.3359375 C-16.01720183 83.8625948 -9.31530437 79.33252267 -6.46484375 72.3359375 C-2.33062342 72.93705559 1.45926488 73.85904098 5.41015625 75.2109375 C6.44398438 75.56414062 7.4778125 75.91734375 8.54296875 76.28125 C12.22892178 77.58047626 15.88747097 78.93298162 19.53515625 80.3359375 C19.20515625 81.9859375 18.87515625 83.6359375 18.53515625 85.3359375 C17.87515625 85.3359375 17.21515625 85.3359375 16.53515625 85.3359375 C16.28636719 86.06039062 16.03757812 86.78484375 15.78125 87.53125 C10.82552152 98.68552288 -1.13370114 106.04238472 -12.06640625 110.4921875 C-27.15002906 115.79847826 -44.93320919 116.34634463 -60.46484375 112.3359375 C-61.36976563 112.10261719 -62.2746875 111.86929688 -63.20703125 111.62890625 C-78.48713335 106.88904455 -90.46943545 94.26978741 -97.95703125 80.49609375 C-105.4755657 64.73833631 -106.13593431 45.32007925 -100.84375 28.6875 C-94.57071307 13.44028842 -83.51485714 1.23151167 -68.46484375 -5.6640625 C-46.03847194 -13.91313289 -20.24925198 -13.67065189 0 0 Z " fill="#7DA972" transform="translate(636.46484375,210.6640625)"/>
<path d="M0 0 C9.51145087 6.051468 16.53954421 13.70473901 19.65234375 24.6875 C20.02622629 27.70290768 20.02957418 30.65293721 19.96484375 33.6875 C19.96806641 34.44289063 19.97128906 35.19828125 19.97460938 35.9765625 C19.87432228 46.58876057 16.3837819 56.1776745 9.29296875 64.2109375 C0.31527363 72.29086311 -8.74101308 75.22853102 -20.65234375 74.98828125 C-32.00211718 74.06446248 -39.78507754 70.1680004 -47.34765625 61.6875 C-56.4628418 50.81493757 -57.13367921 38.88396042 -56.171875 25.18359375 C-54.82801904 16.1328048 -47.93220802 8.33834619 -40.93359375 2.828125 C-29.42868732 -5.44633972 -12.72171541 -6.28056637 0 0 Z " fill="#FBFCFB" transform="translate(1006.34765625,227.3125)"/>
<path d="M0 0 C0.7437085 0.00386719 1.48741699 0.00773438 2.25366211 0.01171875 C7.61455708 0.09605928 12.45816399 0.74692043 17.625 2.25 C17.625 2.91 17.625 3.57 17.625 4.25 C18.8315625 4.4975 18.8315625 4.4975 20.0625 4.75 C28.83513924 8.44374284 33.5237068 14.9267359 37.53125 23.3203125 C41.23133675 33.23125915 40.63062707 45.23124309 37.625 55.25 C36.635 56.24 36.635 56.24 35.625 57.25 C35.521875 57.848125 35.41875 58.44625 35.3125 59.0625 C34.27285683 62.37045554 32.16906318 63.9271597 29.625 66.25 C29.13 66.73726563 28.635 67.22453125 28.125 67.7265625 C19.39463772 75.91127714 10.58940043 77.94535844 -1.09155273 77.7734375 C-7.48659356 77.51244009 -12.84812422 76.66178293 -18.375 73.25 C-19.0865625 72.82589844 -19.798125 72.40179688 -20.53125 71.96484375 C-25.93698337 68.34421263 -29.07295818 63.7709298 -32.375 58.25 C-33.035 57.26 -33.695 56.27 -34.375 55.25 C-37.71959328 44.47297721 -38.25359983 31.16333061 -33.69140625 20.671875 C-28.80951113 11.69034689 -21.8585798 4.56776428 -12.0859375 1.07421875 C-7.95437379 0.1565767 -4.2126483 -0.05309065 0 0 Z " fill="#FCFCFC" transform="translate(459.375,223.75)"/>
<path d="M0 0 C0.76441406 0.44730469 1.52882813 0.89460937 2.31640625 1.35546875 C10.61099643 6.45247392 15.9303701 12.69666014 19 22 C21.62027523 34.78694312 20.15639812 45.84337663 13.8125 57.1875 C8.044381 65.72571871 0.80832945 70.2660247 -9 73 C-10.00546875 73.29003906 -10.00546875 73.29003906 -11.03125 73.5859375 C-20.60438614 75.59933518 -30.51443311 73.49539606 -38.80078125 68.53515625 C-48.32257973 61.88850118 -53.28549961 53.16891349 -56 42 C-57.08489621 28.96715592 -55.43012973 18.21555022 -47 8 C-35.49210573 -4.41177103 -15.08521316 -9.96426145 0 0 Z " fill="#FBFCFB" transform="translate(867,228)"/>
<path d="M0 0 C0 8.58 0 17.16 0 26 C-2.619375 26.0825 -5.23875 26.165 -7.9375 26.25 C-14.68349105 26.58228335 -20.1697557 27.35456304 -26 31 C-26.96486328 31.55880859 -26.96486328 31.55880859 -27.94921875 32.12890625 C-34.32593054 36.17952192 -36.96853801 41.8051738 -39 49 C-39.19574866 51.45527814 -39.29328084 53.91938804 -39.31884766 56.38232422 C-39.32889328 57.09521103 -39.3389389 57.80809784 -39.34928894 58.54258728 C-39.37998012 60.87994642 -39.39711646 63.21719177 -39.4140625 65.5546875 C-39.43278551 67.18279998 -39.45235976 68.81090288 -39.4727478 70.43899536 C-39.52395545 74.70994399 -39.56364178 78.98092403 -39.60089111 83.25201416 C-39.64100225 87.61600444 -39.69206208 91.97986529 -39.7421875 96.34375 C-39.83881218 104.89575121 -39.92224704 113.44780637 -40 122 C-48.91 122 -57.82 122 -67 122 C-67 82.4 -67 42.8 -67 2 C-58.09 2 -49.18 2 -40 2 C-39.505 9.92 -39.505 9.92 -39 18 C-38.236875 16.824375 -37.47375 15.64875 -36.6875 14.4375 C-27.36734798 2.0399393 -14.67964291 0 0 0 Z " fill="#7CA970" transform="translate(1136,201)"/>
<path d="M0 0 C0.66 0.33 1.32 0.66 2 1 C-2.29 5.29 -6.58 9.58 -11 14 C-11 9.40845608 -8.09282279 7.18698368 -5 4 C-3.3719908 2.61973133 -1.71956118 1.26438322 0 0 Z " fill="#E0EBDE" transform="translate(577,229)"/>
<path d="M0 0 C0.66 0.33 1.32 0.66 2 1 C-1.96 4.96 -5.92 8.92 -10 13 C-10 8.41771462 -7.08388033 6.1816619 -4 3 C-1.625 1.0625 -1.625 1.0625 0 0 Z " fill="#E0ECDF" transform="translate(439,229)"/>
<path d="M0 0 C-1.47721422 3.45201639 -3.43794001 5.64961936 -6.125 8.25 C-6.84945312 8.95640625 -7.57390625 9.6628125 -8.3203125 10.390625 C-8.87460937 10.92171875 -9.42890625 11.4528125 -10 12 C-10 8.07290865 -8.72099538 7.1810287 -6.125 4.3125 C-5.04605469 3.10013672 -5.04605469 3.10013672 -3.9453125 1.86328125 C-2 0 -2 0 0 0 Z " fill="#E2EDE1" transform="translate(966,231)"/>
<path d="M0 0 C0.66 0.33 1.32 0.66 2 1 C-1.63 4.63 -5.26 8.26 -9 12 C-9 8.00102358 -7.64683965 6.93298448 -5 4 C-3.36643049 2.62631655 -1.7074998 1.28062485 0 0 Z " fill="#E0EADE" transform="translate(174,69)"/>
<path d="M0 0 C0.66 0.33 1.32 0.66 2 1 C-0.97 3.97 -3.94 6.94 -7 10 C-7 7 -7 7 -4.625 4.4375 C-3.75875 3.633125 -2.8925 2.82875 -2 2 C-1.34 1.34 -0.68 0.68 0 0 Z " fill="#DFEBDD" transform="translate(1108,232)"/>
</svg>
